<svg width="99" height="39" viewBox="0 0 99 39" fill="none" xmlns="http://www.w3.org/2000/svg">
<rect x="2" y="2" width="96" height="36" rx="7" stroke="#22322F" stroke-width="2"/>
<rect x="0.5" y="0.5" width="97" height="37" rx="7.5" fill="#F9F9F9" stroke="#22322F"/>
<path d="M33.2674 14.7707C33.2674 15.7487 32.4711 16.5415 31.4888 16.5415C30.5065 16.5415 29.7102 15.7487 29.7102 14.7707C29.7102 13.7928 30.5065 13 31.4888 13C32.4711 13 33.2674 13.7928 33.2674 14.7707Z" fill="#22322F"/>
<path d="M33.2712 22.4524C33.2712 23.4303 32.4749 24.2231 31.4926 24.2231C30.5103 24.2231 29.714 23.4303 29.714 22.4524C29.714 21.4744 30.5103 20.6816 31.4926 20.6816C32.4749 20.6816 33.2712 21.4744 33.2712 22.4524Z" fill="#22322F"/>
<path d="M25.5572 14.7707C25.5572 15.7487 24.7609 16.5415 23.7786 16.5415C22.7963 16.5415 22 15.7487 22 14.7707C22 13.7928 22.7963 13 23.7786 13C24.7609 13 25.5572 13.7928 25.5572 14.7707Z" fill="#22322F"/>
<path d="M25.5617 22.4451C25.5617 23.423 24.7654 24.2158 23.7831 24.2158C22.8008 24.2158 22.0045 23.423 22.0045 22.4451C22.0045 21.4671 22.8008 20.6743 23.7831 20.6743C24.7654 20.6743 25.5617 21.4671 25.5617 22.4451Z" fill="#22322F"/>
<path d="M55.2045 23V14.5449H53.1537L50.7513 20.5391H50.7045L48.3021 14.5449H46.2513V23H47.8275V17.293H47.8744L50.1713 22.918H51.2845L53.5814 17.293H53.6283V23H55.2045ZM59.2826 17.8496C60.0443 17.8496 60.5658 18.4004 60.601 19.2031H57.9349C57.9935 18.418 58.5326 17.8496 59.2826 17.8496ZM60.6244 21.0781C60.4662 21.5586 59.9857 21.8691 59.3588 21.8691C58.4857 21.8691 57.9174 21.2539 57.9174 20.3574V20.252H62.2474V19.7305C62.2474 17.8203 61.0931 16.584 59.265 16.584C57.4076 16.584 56.2357 17.8848 56.2357 19.8887C56.2357 21.8984 57.3959 23.1348 59.3295 23.1348C60.8822 23.1348 62.0072 22.3086 62.1947 21.0781H60.6244ZM63.1322 23H64.8431V19.3965C64.8431 18.582 65.3295 18.0195 66.097 18.0195C66.8646 18.0195 67.2513 18.4883 67.2513 19.3086V23H68.9623V18.9512C68.9623 17.4805 68.1771 16.6016 66.7826 16.6016C65.8158 16.6016 65.1537 17.0586 64.8197 17.8379H64.7845V16.7188H63.1322V23ZM75.847 16.7188H74.1361V20.3164C74.1361 21.1484 73.6615 21.6934 72.8998 21.6934C72.1439 21.6934 71.7279 21.248 71.7279 20.4102V16.7188H70.017V20.7676C70.017 22.2324 70.9193 23.1172 72.2787 23.1172C73.2279 23.1172 73.849 22.6602 74.1595 21.8691H74.1947V23H75.847V16.7188Z" fill="#22322F"/>
</svg>
